<svg width="64" height="64" viewBox="0 0 64 64" fill="none" xmlns="http://www.w3.org/2000/svg">
<g id="Location sharing">
<g id="Illustration">
<path id="Vector" d="M31.9998 63.9996C49.6997 63.9996 63.9996 49.6997 63.9996 31.9998C63.9996 14.2999 49.6997 0 31.9998 0C14.2999 0 0 14.2999 0 31.9998C0 49.6997 14.2999 63.9996 31.9998 63.9996Z" fill="#FFEBF5"/>
<path id="Vector_2" d="M15.6999 15.9003H46.9997C53.7997 15.9003 59.3997 21.3003 59.3997 27.9002V64L46.9997 52.0001H15.6999C8.89996 52.0001 3.29997 46.6001 3.29997 40.0002V28.0002C3.39997 21.3003 8.89996 15.9003 15.6999 15.9003Z" fill="url(#paint0_linear_2445_36)"/>
<path id="Vector_3" d="M31.4999 37.1002C32.8998 37.1002 34.0998 35.9002 34.0998 34.5002C34.0998 33.0002 32.8998 31.9002 31.4999 31.9002C30.0999 31.9002 28.8999 33.1002 28.8999 34.5002C28.8999 35.9002 29.9999 37.1002 31.4999 37.1002Z" fill="white"/>
<path id="Vector_4" d="M54.4997 18.5003C52.3997 16.9003 49.6997 15.9003 46.7998 15.9003H33.2998L28.3999 20.6003L40.0998 32.2002L54.4997 18.5003Z" fill="#85DAFF" fill-opacity="0.7"/>
<path id="Vector_5" d="M6.29995 20.2011C4.49996 22.301 3.39997 25.001 3.39997 27.901V39.9009C3.39997 42.7009 4.39998 45.3009 6.09997 47.4009L19.6999 34.101L6.29995 20.2011Z" fill="#85DAFF" fill-opacity="0.7"/>
<path id="Vector_6" d="M15.6999 52.0013H37.9998L24.0999 38.1013L11.0999 51.1013C12.4999 51.6013 14.0999 52.0013 15.6999 52.0013Z" fill="#85DAFF" fill-opacity="0.7"/>
<path id="Vector_7" d="M59.3997 32.1014L49.3997 42.2013L59.3997 52.1013V32.1014Z" fill="#85DAFF" fill-opacity="0.7"/>
<path id="Vector_8" d="M57.9997 22.4999L39.9998 39.4998C39.5998 39.8998 38.8998 39.8998 38.4998 39.4998L31.4998 32.5998L29.2998 34.6998L36.2998 41.5998C37.0998 42.3998 38.0998 42.7998 39.1998 42.7998C40.2998 42.7998 41.2998 42.3998 42.0998 41.5998L59.0997 25.5999C58.8997 24.4999 58.4997 23.4999 57.9997 22.4999Z" fill="white"/>
<path id="Vector_9" d="M26.8999 34.6014L31.4999 30.1014L36.0998 34.6014L31.4999 39.2013L26.8999 34.6014Z" fill="url(#paint1_linear_2445_36)"/>
<path id="Vector_10" d="M20.8999 24.6999L31.4998 34.8998H31.5998H31.6998L42.2997 24.6999C44.9997 21.9999 46.6997 18.4999 46.6997 14.4999C46.6997 6.49996 39.9998 0 31.6998 0C23.3999 0 16.6999 6.49996 16.6999 14.4999C16.4999 18.3999 18.1999 22.0999 20.8999 24.6999Z" fill="url(#paint2_linear_2445_36)"/>
<path id="Vector_11" d="M31.5998 7.90035L24.4999 15.0003L31.5998 22.1003L38.6998 15.0003L31.5998 7.90035Z" fill="white"/>
</g>
</g>
<defs>
<linearGradient id="paint0_linear_2445_36" x1="48.6527" y1="28.8644" x2="-11.2549" y2="78.5743" gradientUnits="userSpaceOnUse">
<stop stop-color="#ADE6FF"/>
<stop offset="0.9987" stop-color="white"/>
</linearGradient>
<linearGradient id="paint1_linear_2445_36" x1="26.8509" y1="27.1793" x2="33.1691" y2="37.2664" gradientUnits="userSpaceOnUse">
<stop stop-color="#8C5CFF"/>
<stop offset="0.9996" stop-color="#7145D6"/>
</linearGradient>
<linearGradient id="paint2_linear_2445_36" x1="23.5644" y1="-2.79118" x2="39.6925" y2="31.7928" gradientUnits="userSpaceOnUse">
<stop stop-color="#FF9ED2"/>
<stop offset="1" stop-color="#F55DAE"/>
</linearGradient>
</defs>
</svg>
