<svg width="64" height="64" viewBox="0 0 64 64" fill="none" xmlns="http://www.w3.org/2000/svg">
<g id="Type=Safety">
<g id="Illustration">
<path id="Vector" fill-rule="evenodd" clip-rule="evenodd" d="M60 12.4V41.1C60 52.6 32.5 64 32.5 64C32.5 64 5 52.6 5 41.1V12.4C5 10.4 6.3 8.7 8.1 8.1L32.5 0L56.9 8.1C58.7 8.7 60 10.5 60 12.4ZM41.6 22.9C41.6 27.9 37.5 32 32.5 32C27.5 32 23.4 27.9 23.4 22.9C23.4 17.8 27.5 13.7 32.5 13.7C37.5 13.7 41.6 17.8 41.6 22.9ZM48.4 44.7C43.5 50.3 32.5 54.9 32.5 54.9C32.5 54.9 21.7 50.4 16.7 44.9C19.2 40.1 24.6 36.6 32.2 36.6C39.7 36.6 45.5 40 48.4 44.7Z" fill="url(#paint0_linear_9932_69129)"/>
<path id="Vector_2" fill-rule="evenodd" clip-rule="evenodd" d="M41.6 22.9002C41.6 27.9002 37.5 32.0002 32.5 32.0002C27.5 32.0002 23.4 27.9002 23.4 22.9002C23.4 17.8002 27.5 13.7002 32.5 13.7002C37.5 13.7002 41.6 17.8002 41.6 22.9002ZM48.4 44.7002C43.5 50.3002 32.5 54.9002 32.5 54.9002C32.5 54.9002 21.7 50.4002 16.7 44.9002C19.2 40.1002 24.6 36.6002 32.2 36.6002C39.7 36.6002 45.5 40.0002 48.4 44.7002Z" fill="white"/>
</g>
</g>
<defs>
<linearGradient id="paint0_linear_9932_69129" x1="32.4268" y1="26.6594" x2="44.3983" y2="76.5406" gradientUnits="userSpaceOnUse">
<stop stop-color="#4694FA"/>
<stop offset="1" stop-color="#3979CC"/>
</linearGradient>
</defs>
</svg>
