<svg width="65" height="64" viewBox="0 0 65 64" fill="none" xmlns="http://www.w3.org/2000/svg">
<g id="Chat alt">
<g id="Illustration">
<path id="Vector" d="M32.5015 59C47.1015 59 58.9015 47.3 58.9015 33C58.9015 18.6 47.1015 7 32.5015 7C17.9015 7 6.00146 18.6 6.00146 33C6.00146 47.4 17.9015 59 32.5015 59Z" fill="#F8F9FB"/>
<path id="Vector_2" d="M11.1015 1H33.4015C39.5015 1 44.5015 6 44.5015 11.9V22.8C44.5015 28.9 39.5015 33.7 33.4015 33.7H11.1015L0.00147428 44.7V11.8C-0.0985257 5.9 4.90147 1 11.1015 1Z" fill="url(#paint0_linear_2445_28)"/>
<path id="Vector_3" d="M36.7014 10.9004H9.10144V15.5004H36.7014V10.9004Z" fill="url(#paint1_linear_2445_28)"/>
<path id="Vector_4" d="M30.5015 19.9004H9.00146V24.5004H30.5015V19.9004Z" fill="url(#paint2_linear_2445_28)"/>
<path id="Vector_5" d="M54.8015 27.8008H36.4015C31.4015 27.8008 27.2015 31.9008 27.2015 36.8008V45.8008C27.2015 50.8008 31.3015 54.8008 36.4015 54.8008H54.8015L64.0015 63.8008V36.8008C64.0015 31.9008 59.9015 27.8008 54.8015 27.8008Z" fill="#FFD36B"/>
<path id="Vector_6" d="M58.9014 35.8008H34.3015V39.6008H58.9014V35.8008Z" fill="#F3AF13"/>
<path id="Vector_7" d="M53.2015 43.6992H33.2015V47.4992H53.2015V43.6992Z" fill="#F3AF13"/>
</g>
</g>
<defs>
<linearGradient id="paint0_linear_2445_28" x1="19.4443" y1="19.7453" x2="-48.394" y2="77.8292" gradientUnits="userSpaceOnUse">
<stop stop-color="#ADE6FF"/>
<stop offset="0.9987" stop-color="#E5F7FF"/>
</linearGradient>
<linearGradient id="paint1_linear_2445_28" x1="37.1387" y1="28.4708" x2="-20.5018" y2="-33.1602" gradientUnits="userSpaceOnUse">
<stop stop-color="#85DAFF"/>
<stop offset="0.9996" stop-color="#3979CC"/>
</linearGradient>
<linearGradient id="paint2_linear_2445_28" x1="30.1839" y1="43.1471" x2="-11.4946" y2="-41.0967" gradientUnits="userSpaceOnUse">
<stop stop-color="#85DAFF"/>
<stop offset="0.9996" stop-color="#3979CC"/>
</linearGradient>
</defs>
</svg>
